# xmcd
#
# Track frame offsets:
#	182
#	16610
#	32605
#	47887
#	62745
#	80120
#	94657
#	111155
#	128177
#	140455
#	170077
#	185557
#	199942
#
# Disc length: 3002 seconds
#
# Revision: 2
# Processed by: cddbd v1.5.2PL0 Copyright (c) Steve Scherf et al.
# Submitted via: audiograbber 1.83.01
#
DISCID=b50bb80d
DTITLE=Marcel Dadi - Hommage
DYEAR=1997
DGENRE=Acoustic
TTITLE0=The Richard Smith Guitar Trio - Big Chief 
TTITLE1=Martin Taylor - En Attendant Joachim
TTITLE2=Romane - Les Scénaristes
TTITLE3=Joe Edwards - Spirit Of Merle
TTITLE4=Jacques Stotzem - L'Echo Des Savanes
TTITLE5=Tommy Jones - Je T'Aurai
TTITLE6=Juan Carmona - Je Crie Vers Toi
TTITLE7=Cabrel, Crapou and Lable - Like Father And Son
TTITLE8=Michel Aumont and Jack Ada - Song For Kathy
TTITLE9=Larry Coryell - Nashville Rumba
TTITLE10=Albert Lee - Swingy Boogie
TTITLE11=Muriel Anderson - Winter's Waltz
TTITLE12=Arnaud Dumond - Le Derviche Tourneur
EXTD=
EXTT0=
EXTT1=
EXTT2=
EXTT3=
EXTT4=
EXTT5=
EXTT6=
EXTT7=
EXTT8=
EXTT9=
EXTT10=
EXTT11=
EXTT12=
PLAYORDER=
